<svg xmlns="http://www.w3.org/2000/svg" width="120" height="190" viewBox="0 0 120 190" fill="none" stroke="currentColor" stroke-width="1" stroke-linecap="round" stroke-linejoin="round">
  <g>
    
    <path d="M30.0,0.0 Q51.0,47.5 30.0,95.0 Q9.0,47.5 30.0,0.0 Z"/>
    <path d="M30.0,0.0 L30.0,95.0"/>
    <path d="M30.0,13.6 L37.5,8.4"/>
    <path d="M30.0,13.6 L22.5,8.4"/>
    <path d="M30.0,27.1 L43.4,19.6"/>
    <path d="M30.0,27.1 L16.6,19.6"/>
    <path d="M30.0,40.7 L47.3,31.5"/>
    <path d="M30.0,40.7 L12.7,31.5"/>
    <path d="M30.0,54.3 L47.3,45.1"/>
    <path d="M30.0,54.3 L12.7,45.1"/>
    <path d="M30.0,67.9 L43.4,60.3"/>
    <path d="M30.0,67.9 L16.6,60.3"/>
    <path d="M30.0,81.4 L37.5,76.3"/>
    <path d="M30.0,81.4 L22.5,76.3"/>
    <path d="M30.0,95.0 Q51.0,142.5 30.0,190.0 Q9.0,142.5 30.0,95.0 Z"/>
    <path d="M30.0,95.0 L30.0,190.0"/>
    <path d="M30.0,108.6 L37.5,103.4"/>
    <path d="M30.0,108.6 L22.5,103.4"/>
    <path d="M30.0,122.1 L43.4,114.6"/>
    <path d="M30.0,122.1 L16.6,114.6"/>
    <path d="M30.0,135.7 L47.3,126.5"/>
    <path d="M30.0,135.7 L12.7,126.5"/>
    <path d="M30.0,149.3 L47.3,140.1"/>
    <path d="M30.0,149.3 L12.7,140.1"/>
    <path d="M30.0,162.9 L43.4,155.3"/>
    <path d="M30.0,162.9 L16.6,155.3"/>
    <path d="M30.0,176.4 L37.5,171.3"/>
    <path d="M30.0,176.4 L22.5,171.3"/>
    <path d="M90.0,-47.5 Q111.0,0.0 90.0,47.5 Q69.0,0.0 90.0,-47.5 Z"/>
    <path d="M90.0,-47.5 L90.0,47.5"/>
    <path d="M90.0,-33.9 L97.5,-39.1"/>
    <path d="M90.0,-33.9 L82.5,-39.1"/>
    <path d="M90.0,-20.4 L103.4,-27.9"/>
    <path d="M90.0,-20.4 L76.6,-27.9"/>
    <path d="M90.0,-6.8 L107.3,-16.0"/>
    <path d="M90.0,-6.8 L72.7,-16.0"/>
    <path d="M90.0,6.8 L107.3,-2.4"/>
    <path d="M90.0,6.8 L72.7,-2.4"/>
    <path d="M90.0,20.4 L103.4,12.8"/>
    <path d="M90.0,20.4 L76.6,12.8"/>
    <path d="M90.0,33.9 L97.5,28.8"/>
    <path d="M90.0,33.9 L82.5,28.8"/>
    <path d="M90.0,47.5 Q111.0,95.0 90.0,142.5 Q69.0,95.0 90.0,47.5 Z"/>
    <path d="M90.0,47.5 L90.0,142.5"/>
    <path d="M90.0,61.1 L97.5,55.9"/>
    <path d="M90.0,61.1 L82.5,55.9"/>
    <path d="M90.0,74.6 L103.4,67.1"/>
    <path d="M90.0,74.6 L76.6,67.1"/>
    <path d="M90.0,88.2 L107.3,79.0"/>
    <path d="M90.0,88.2 L72.7,79.0"/>
    <path d="M90.0,101.8 L107.3,92.6"/>
    <path d="M90.0,101.8 L72.7,92.6"/>
    <path d="M90.0,115.4 L103.4,107.8"/>
    <path d="M90.0,115.4 L76.6,107.8"/>
    <path d="M90.0,128.9 L97.5,123.8"/>
    <path d="M90.0,128.9 L82.5,123.8"/>
    <path d="M90.0,142.5 Q111.0,190.0 90.0,237.5 Q69.0,190.0 90.0,142.5 Z"/>
    <path d="M90.0,142.5 L90.0,237.5"/>
    <path d="M90.0,156.1 L97.5,150.9"/>
    <path d="M90.0,156.1 L82.5,150.9"/>
    <path d="M90.0,169.6 L103.4,162.1"/>
    <path d="M90.0,169.6 L76.6,162.1"/>
    <path d="M90.0,183.2 L107.3,174.0"/>
    <path d="M90.0,183.2 L72.7,174.0"/>
    <path d="M90.0,196.8 L107.3,187.6"/>
    <path d="M90.0,196.8 L72.7,187.6"/>
    <path d="M90.0,210.4 L103.4,202.8"/>
    <path d="M90.0,210.4 L76.6,202.8"/>
    <path d="M90.0,223.9 L97.5,218.8"/>
    <path d="M90.0,223.9 L82.5,218.8"/>
  </g>
</svg>
